<?xml version="1.0" encoding="UTF-8" standalone="no" ?>
<!DOCTYPE svg PUBLIC "-//W3C//DTD SVG 1.1//EN" "http://www.w3.org/Graphics/SVG/1.1/DTD/svg11.dtd">
<svg xmlns="http://www.w3.org/2000/svg" xmlns:xlink="http://www.w3.org/1999/xlink" version="1.1" width="1500" height="1500" viewBox="0 0 1500 1500" xml:space="preserve">
<desc>Created with Fabric.js 5.2.4</desc>
<defs>
</defs>
<g transform="matrix(1 0 0 1 540 540)" id="d148b127-fb27-4bfb-a56b-c46ceab7c6c6"  >
<rect style="stroke: none; stroke-width: 1; stroke-dasharray: none; stroke-linecap: butt; stroke-dashoffset: 0; stroke-linejoin: miter; stroke-miterlimit: 4; fill: rgb(255,255,255); fill-rule: nonzero; opacity: 1; visibility: hidden;" vector-effect="non-scaling-stroke"  x="-540" y="-540" rx="0" ry="0" width="1080" height="1080" />
</g>
<g transform="matrix(1 0 0 1 540 540)" id="ba7fd626-314d-40f2-b6ea-8d578980eeb6"  >
</g>
<g transform="matrix(1 0 0 1 540 546.46)"  >
<g style="" vector-effect="non-scaling-stroke"   >
		<g transform="matrix(1 0 0 1 -88.86 0)"  >
<path style="stroke: none; stroke-width: 1; stroke-dasharray: none; stroke-linecap: butt; stroke-dashoffset: 0; stroke-linejoin: miter; stroke-miterlimit: 4; fill: rgb(70,95,255); fill-rule: nonzero; opacity: 1;" vector-effect="non-scaling-stroke"  transform=" translate(-24.43, -24)" d="M 0.425781 12.6316 C 0.425781 5.65535 6.08113 0 13.0574 0 L 35.7942 0 C 42.7704 0 48.4258 5.65535 48.4258 12.6316 L 48.4258 35.3684 C 48.4258 42.3446 42.7704 48 35.7942 48 L 13.0574 48 C 6.08113 48 0.425781 42.3446 0.425781 35.3684 L 0.425781 12.6316 Z" stroke-linecap="round" />
</g>
		<g transform="matrix(1 0 0 1 -97.69 0)"  >
<path style="stroke: none; stroke-width: 1; stroke-dasharray: none; stroke-linecap: butt; stroke-dashoffset: 0; stroke-linejoin: miter; stroke-miterlimit: 4; fill: rgb(255,255,255); fill-rule: nonzero; opacity: 1;" vector-effect="non-scaling-stroke"  transform=" translate(-15.59, -24)" d="M 13.0615 12.6323 C 13.0615 11.237 14.1926 10.106 15.5878 10.106 C 16.9831 10.106 18.1142 11.237 18.1142 12.6323 L 18.1142 35.3691 C 18.1142 36.7644 16.9831 37.8954 15.5878 37.8954 C 14.1926 37.8954 13.0615 36.7644 13.0615 35.3691 L 13.0615 12.6323 Z" stroke-linecap="round" />
</g>
		<g transform="matrix(1 0 0 1 -88.21 5.05)"  >
<path style="stroke: none; stroke-width: 1; stroke-dasharray: none; stroke-linecap: butt; stroke-dashoffset: 0; stroke-linejoin: miter; stroke-miterlimit: 4; fill: rgb(255,255,255); fill-opacity: 0.9; fill-rule: nonzero; opacity: 1;" vector-effect="non-scaling-stroke"  transform=" translate(-25.07, -29.05)" d="M 22.5391 22.7353 C 22.5391 21.3401 23.6701 20.209 25.0654 20.209 C 26.4606 20.209 27.5917 21.3401 27.5917 22.7353 L 27.5917 35.3669 C 27.5917 36.7621 26.4606 37.8932 25.0654 37.8932 C 23.6701 37.8932 22.5391 36.7621 22.5391 35.3669 L 22.5391 22.7353 Z" stroke-linecap="round" />
</g>
		<g transform="matrix(1 0 0 1 -78.74 1.89)"  >
<path style="stroke: none; stroke-width: 1; stroke-dasharray: none; stroke-linecap: butt; stroke-dashoffset: 0; stroke-linejoin: miter; stroke-miterlimit: 4; fill: rgb(255,255,255); fill-opacity: 0.7; fill-rule: nonzero; opacity: 1;" vector-effect="non-scaling-stroke"  transform=" translate(-34.53, -25.89)" d="M 32.0078 16.4189 C 32.0078 15.0236 33.1389 13.8926 34.5341 13.8926 C 35.9294 13.8926 37.0604 15.0236 37.0604 16.4189 L 37.0604 35.3663 C 37.0604 36.7615 35.9294 37.8926 34.5341 37.8926 C 33.1389 37.8926 32.0078 36.7615 32.0078 35.3663 L 32.0078 16.4189 Z" stroke-linecap="round" />
</g>
		<g transform="matrix(1 0 0 1 -36.94 0)"  >
<path style="stroke: none; stroke-width: 1; stroke-dasharray: none; stroke-linecap: butt; stroke-dashoffset: 0; stroke-linejoin: miter; stroke-miterlimit: 4; fill: rgb(255,255,255); fill-rule: nonzero; opacity: 1;" vector-effect="non-scaling-stroke"  transform=" translate(-76.34, -24)" d="M 66.4258 15.1724 L 74.0585 15.1724 L 74.0585 37.0363 L 78.6239 37.0363 L 78.6239 15.1724 L 86.2567 15.1724 L 86.2567 10.9637 L 66.4258 10.9637 L 66.4258 15.1724 Z" stroke-linecap="round" />
</g>
		<g transform="matrix(1 0 0 1 -19.93 4.19)"  >
<path style="stroke: none; stroke-width: 1; stroke-dasharray: none; stroke-linecap: butt; stroke-dashoffset: 0; stroke-linejoin: miter; stroke-miterlimit: 4; fill: rgb(255,255,255); fill-rule: nonzero; opacity: 1;" vector-effect="non-scaling-stroke"  transform=" translate(-93.35, -28.19)" d="M 91.3521 37.5 C 94.0984 37.5 96.4881 36.2516 97.2371 34.4326 L 97.5581 37.0363 L 101.375 37.0363 L 101.375 26.3362 C 101.375 21.4498 98.4498 18.8818 93.7061 18.8818 C 88.9267 18.8818 85.788 21.3785 85.788 25.1948 L 89.4974 25.1948 C 89.4974 23.3402 90.9241 22.2701 93.4921 22.2701 C 95.7035 22.2701 97.1301 23.2332 97.1301 25.6229 L 97.1301 26.0152 L 91.8514 26.4075 C 87.6784 26.7285 85.3243 28.7616 85.3243 32.0073 C 85.3243 35.3243 87.607 37.5 91.3521 37.5 Z M 92.7788 34.2186 C 90.8171 34.2186 89.747 33.4339 89.747 31.8289 C 89.747 30.4022 90.7814 29.5106 93.4921 29.2609 L 97.1658 28.9756 L 97.1658 29.9029 C 97.1658 32.6136 95.4538 34.2186 92.7788 34.2186 Z" stroke-linecap="round" />
</g>
		<g transform="matrix(1 0 0 1 -5.49 -0.16)"  >
<path style="stroke: none; stroke-width: 1; stroke-dasharray: none; stroke-linecap: butt; stroke-dashoffset: 0; stroke-linejoin: miter; stroke-miterlimit: 4; fill: rgb(255,255,255); fill-rule: nonzero; opacity: 1;" vector-effect="non-scaling-stroke"  transform=" translate(-107.79, -23.84)" d="M 107.825 15.8857 C 109.252 15.8857 110.429 14.7087 110.429 13.2464 C 110.429 11.784 109.252 10.6427 107.825 10.6427 C 106.327 10.6427 105.15 11.784 105.15 13.2464 C 105.15 14.7087 106.327 15.8857 107.825 15.8857 Z M 105.649 37.0363 L 110.001 37.0363 L 110.001 19.4168 L 105.649 19.4168 L 105.649 37.0363 Z" stroke-linecap="round" />
</g>
		<g transform="matrix(1 0 0 1 3.45 -0.23)"  >
<path style="stroke: none; stroke-width: 1; stroke-dasharray: none; stroke-linecap: butt; stroke-dashoffset: 0; stroke-linejoin: miter; stroke-miterlimit: 4; fill: rgb(255,255,255); fill-rule: nonzero; opacity: 1;" vector-effect="non-scaling-stroke"  transform=" translate(-116.73, -23.77)" d="M 118.883 37.0363 L 118.883 10.5 L 114.568 10.5 L 114.568 37.0363 L 118.883 37.0363 Z" stroke-linecap="round" />
</g>
		<g transform="matrix(1 0 0 1 20.06 0)"  >
<path style="stroke: none; stroke-width: 1; stroke-dasharray: none; stroke-linecap: butt; stroke-dashoffset: 0; stroke-linejoin: miter; stroke-miterlimit: 4; fill: rgb(255,255,255); fill-rule: nonzero; opacity: 1;" vector-effect="non-scaling-stroke"  transform=" translate(-133.35, -24)" d="M 126.337 37.0363 L 128.441 31.0086 L 138.179 31.0086 L 140.283 37.0363 L 145.098 37.0363 L 135.682 10.9637 L 131.009 10.9637 L 121.593 37.0363 L 126.337 37.0363 Z M 132.757 18.7391 C 133.007 18.0258 133.221 17.2411 133.328 16.7417 C 133.399 17.2768 133.649 18.0614 133.863 18.7391 L 136.859 27.1565 L 129.797 27.1565 L 132.757 18.7391 Z" stroke-linecap="round" />
</g>
		<g transform="matrix(1 0 0 1 41.9 0)"  >
<path style="stroke: none; stroke-width: 1; stroke-dasharray: none; stroke-linecap: butt; stroke-dashoffset: 0; stroke-linejoin: miter; stroke-miterlimit: 4; fill: rgb(255,255,255); fill-rule: nonzero; opacity: 1;" vector-effect="non-scaling-stroke"  transform=" translate(-155.18, -24)" d="M 154.165 37.5 C 156.84 37.5 159.122 36.323 160.192 34.29 L 160.478 37.0363 L 164.472 37.0363 L 164.472 10.5 L 160.157 10.5 L 160.157 21.6638 C 159.051 19.9161 156.875 18.8818 154.414 18.8818 C 149.1 18.8818 145.89 22.8052 145.89 28.2979 C 145.89 33.755 149.064 37.5 154.165 37.5 Z M 155.128 33.5053 C 152.096 33.5053 150.241 31.2939 150.241 28.1552 C 150.241 25.0165 152.096 22.7695 155.128 22.7695 C 158.159 22.7695 160.121 24.9808 160.121 28.1552 C 160.121 31.3296 158.159 33.5053 155.128 33.5053 Z" stroke-linecap="round" />
</g>
		<g transform="matrix(1 0 0 1 69.36 3.96)"  >
<path style="stroke: none; stroke-width: 1; stroke-dasharray: none; stroke-linecap: butt; stroke-dashoffset: 0; stroke-linejoin: miter; stroke-miterlimit: 4; fill: rgb(255,255,255); fill-rule: nonzero; opacity: 1;" vector-effect="non-scaling-stroke"  transform=" translate(-182.65, -27.96)" d="M 173.359 37.0363 L 173.359 27.0495 C 173.359 24.1962 175.035 22.8408 177.104 22.8408 C 179.172 22.8408 180.492 24.1605 180.492 26.6215 L 180.492 37.0363 L 184.843 37.0363 L 184.843 27.0495 C 184.843 24.1605 186.448 22.8052 188.553 22.8052 C 190.621 22.8052 191.977 24.1248 191.977 26.6572 L 191.977 37.0363 L 196.292 37.0363 L 196.292 25.5159 C 196.292 21.4498 193.938 18.8818 189.658 18.8818 C 186.983 18.8818 184.915 20.2015 184.023 22.2345 C 183.096 20.2015 181.241 18.8818 178.566 18.8818 C 176.034 18.8818 174.25 20.0231 173.359 21.4855 L 173.002 19.4168 L 169.007 19.4168 L 169.007 37.0363 L 173.359 37.0363 Z" stroke-linecap="round" />
</g>
		<g transform="matrix(1 0 0 1 89.42 -0.16)"  >
<path style="stroke: none; stroke-width: 1; stroke-dasharray: none; stroke-linecap: butt; stroke-dashoffset: 0; stroke-linejoin: miter; stroke-miterlimit: 4; fill: rgb(255,255,255); fill-rule: nonzero; opacity: 1;" vector-effect="non-scaling-stroke"  transform=" translate(-202.7, -23.84)" d="M 202.74 15.8857 C 204.167 15.8857 205.344 14.7087 205.344 13.2464 C 205.344 11.784 204.167 10.6427 202.74 10.6427 C 201.242 10.6427 200.065 11.784 200.065 13.2464 C 200.065 14.7087 201.242 15.8857 202.74 15.8857 Z M 200.564 37.0363 L 204.916 37.0363 L 204.916 19.4168 L 200.564 19.4168 L 200.564 37.0363 Z" stroke-linecap="round" />
</g>
		<g transform="matrix(1 0 0 1 104.49 3.96)"  >
<path style="stroke: none; stroke-width: 1; stroke-dasharray: none; stroke-linecap: butt; stroke-dashoffset: 0; stroke-linejoin: miter; stroke-miterlimit: 4; fill: rgb(255,255,255); fill-rule: nonzero; opacity: 1;" vector-effect="non-scaling-stroke"  transform=" translate(-217.78, -27.96)" d="M 213.763 37.0363 L 213.763 27.5489 C 213.763 24.6955 215.403 22.8408 218.078 22.8408 C 220.325 22.8408 221.788 24.2675 221.788 27.2279 L 221.788 37.0363 L 226.139 37.0363 L 226.139 26.1935 C 226.139 21.6281 223.856 18.8818 219.434 18.8818 C 217.044 18.8818 214.904 19.9161 213.798 21.6995 L 213.442 19.4168 L 209.411 19.4168 L 209.411 37.0363 L 213.763 37.0363 Z" stroke-linecap="round" />
</g>
</g>
</g>
</svg>